<svg viewBox="0 0 820.79 291.86" xmlns="http://www.w3.org/2000/svg"><path d="m50.06 58.58h28.66l50.06 133.25h-27.73l-10.98-31.82h-51.36l-10.98 31.82h-27.73zm31.82 78.35-11.91-33.31-4.84-16.19h-1.49l-4.84 16.19-11.91 33.31z"/><path d="m141.62 100.64h22.89v10.98h1.49c2.23-3.84 5.71-7.13 10.42-9.86s10.54-4.09 17.49-4.09c5.83 0 11.38 1.21 16.66 3.63 5.27 2.42 9.92 5.77 13.96 10.05 4.03 4.28 7.23 9.4 9.58 15.35 2.36 5.96 3.54 12.47 3.54 19.54s-1.18 13.59-3.54 19.54c-2.36 5.96-5.55 11.07-9.58 15.35s-8.69 7.63-13.96 10.05-10.83 3.63-16.66 3.63c-6.95 0-12.78-1.37-17.49-4.09-4.72-2.73-8.19-6.02-10.42-9.86h-1.49l1.49 13.03v38.15h-24.38zm47.27 71.65c3.22 0 6.3-.62 9.21-1.86s5.49-2.98 7.72-5.21 4.03-4.96 5.4-8.19c1.36-3.23 2.05-6.82 2.05-10.79s-.68-7.57-2.05-10.79c-1.37-3.23-3.16-5.96-5.4-8.19-2.23-2.23-4.81-3.97-7.72-5.21-2.92-1.24-5.99-1.86-9.21-1.86s-6.3.59-9.21 1.77c-2.92 1.18-5.49 2.88-7.72 5.12-2.23 2.23-4.03 4.96-5.4 8.19s-2.05 6.89-2.05 10.98.68 7.75 2.05 10.98c1.36 3.23 3.16 5.96 5.4 8.19s4.81 3.94 7.72 5.12 5.98 1.77 9.21 1.77z"/><path d="m250.68 100.64h22.89v10.98h1.49c2.23-3.84 5.71-7.13 10.42-9.86s10.54-4.09 17.49-4.09c5.83 0 11.38 1.21 16.66 3.63 5.27 2.42 9.92 5.77 13.96 10.05 4.03 4.28 7.23 9.4 9.58 15.35 2.36 5.96 3.54 12.47 3.54 19.54s-1.18 13.59-3.54 19.54c-2.36 5.96-5.55 11.07-9.58 15.35s-8.69 7.63-13.96 10.05-10.83 3.63-16.66 3.63c-6.95 0-12.78-1.37-17.49-4.09-4.72-2.73-8.19-6.02-10.42-9.86h-1.49l1.49 13.03v38.15h-24.38zm47.27 71.65c3.22 0 6.3-.62 9.21-1.86s5.49-2.98 7.72-5.21 4.03-4.96 5.4-8.19c1.36-3.23 2.05-6.82 2.05-10.79s-.68-7.57-2.05-10.79c-1.37-3.23-3.16-5.96-5.4-8.19-2.23-2.23-4.81-3.97-7.72-5.21-2.92-1.24-5.99-1.86-9.21-1.86s-6.3.59-9.21 1.77c-2.92 1.18-5.49 2.88-7.72 5.12-2.23 2.23-4.03 4.96-5.4 8.19s-2.05 6.89-2.05 10.98.68 7.75 2.05 10.98c1.36 3.23 3.16 5.96 5.4 8.19s4.81 3.94 7.72 5.12 5.98 1.77 9.21 1.77z"/><path d="m405.52 97.66c7.07 0 13.55 1.21 19.45 3.63 5.89 2.42 10.98 5.77 15.26 10.05s7.63 9.4 10.05 15.35c2.42 5.96 3.63 12.47 3.63 19.54s-1.21 13.59-3.63 19.54c-2.42 5.96-5.77 11.07-10.05 15.35s-9.37 7.63-15.26 10.05-12.38 3.63-19.45 3.63-13.56-1.21-19.45-3.63-10.98-5.77-15.26-10.05-7.63-9.4-10.05-15.35c-2.42-5.96-3.63-12.47-3.63-19.54s1.21-13.59 3.63-19.54c2.42-5.96 5.77-11.07 10.05-15.35s9.37-7.63 15.26-10.05 12.38-3.63 19.45-3.63zm0 74.63c3.1 0 6.11-.59 9.03-1.77 2.91-1.18 5.49-2.88 7.72-5.12s4-4.96 5.3-8.19 1.95-6.89 1.95-10.98-.65-7.75-1.95-10.98c-1.3-3.22-3.07-5.96-5.3-8.19s-4.81-3.94-7.72-5.12c-2.92-1.18-5.93-1.77-9.03-1.77s-6.27.59-9.12 1.77c-2.86 1.18-5.4 2.88-7.63 5.12s-4 4.96-5.3 8.19-1.95 6.89-1.95 10.98.65 7.75 1.95 10.98 3.07 5.96 5.3 8.19 4.77 3.94 7.63 5.12c2.85 1.18 5.89 1.77 9.12 1.77z"/><path d="m481.26 88.35c-2.11 0-4.13-.4-6.05-1.21s-3.6-1.92-5.02-3.35c-1.43-1.42-2.54-3.07-3.35-4.93s-1.21-3.91-1.21-6.14.4-4.28 1.21-6.14 1.92-3.5 3.35-4.93 3.1-2.54 5.02-3.35 3.94-1.21 6.05-1.21c4.34 0 8.06 1.52 11.17 4.56 3.1 3.04 4.65 6.73 4.65 11.07s-1.55 8.03-4.65 11.07-6.83 4.56-11.17 4.56zm-12.1 103.47v-91.18h24.38v91.19h-24.38z"/><path d="m538.77 112.55h1.49c2.85-4.59 6.7-8.22 11.54-10.89s10.36-4 16.56-4c5.71 0 10.73.93 15.07 2.79s7.91 4.5 10.7 7.91 4.9 7.51 6.33 12.28c1.42 4.78 2.14 10.08 2.14 15.91v55.27h-24.38v-52.29c0-6.57-1.46-11.45-4.37-14.61-2.92-3.16-7.17-4.75-12.75-4.75-3.35 0-6.3.72-8.84 2.14-2.54 1.43-4.72 3.35-6.51 5.77-1.8 2.42-3.16 5.27-4.09 8.56s-1.4 6.79-1.4 10.51v44.67h-24.38v-91.18h22.89z"/><path d="m628.1 121.48h-16v-20.84h16v-27.92h24.38v27.92h22.33v20.84h-22.33v36.44c0 2.18.22 4.19.65 6.04.43 1.86 1.27 3.42 2.51 4.7 1.74 2.05 4.22 3.07 7.44 3.07 2.11 0 3.78-.22 5.02-.65s2.42-1.02 3.54-1.77l6.89 21.4c-2.86 1.36-5.93 2.39-9.21 3.07-3.29.68-6.92 1.02-10.89 1.02-4.59 0-8.72-.73-12.38-2.18-3.66-1.46-6.73-3.45-9.21-5.98-5.83-5.7-8.75-13.8-8.75-24.32v-40.84z"/><path d="m722.27 187.36-38.34-86.72h27.73l23.08 55.27h1.3l22.15-55.27h27.17l-57.13 131.39h-26.24l20.29-44.66z"/><text fill="#3bd381" font-family="ProductSans-Bold, 'Product Sans'" font-size="227.13" transform="translate(759.7 194.88)"><tspan x="0" y="0">.</tspan></text></svg>